<svg xmlns="http://www.w3.org/2000/svg" viewBox="191.43 212.28 382.87 560.09">
      <path fill="#0293e1" fillRule="evenodd" stroke="#000" strokeLinecap="round" strokeWidth="3.384" d="M259.83 750.95c-3.396-.753-7.034-5.767-7.727-10.648-1.037-7.301-3.17-58.383-3.125-81.498.034-17.651.38-22.936 1.845-28.224 4.816-17.371 13.744-24.366 27.216-21.325 9.612 2.17 25.073 11.681 38.934 23.951l4.398 3.892-1.166 18.681c-2.47 39.606-6.607 64.702-9.782 78.838-1.261 5.615-2.181 7.361-5.42 10.287-2.146 1.939-5.638 4.049-7.76 4.69-3.94 1.189-33.359 2.254-37.414 1.355z"/>
      <path fill="#0293e1" fillRule="evenodd" stroke="#000" strokeLinecap="round" strokeWidth="3.315" d="M423.91 421.19c-25.155-16.198-41.362-27.753-71.234-50.789l-38.67-29.821-10.496.016c-23.19.035-51.386 1.892-58.249 3.837l-6.873 1.948-4.363-3.024c-6.582-4.56-10.353-10.702-10.944-17.819-.274-3.31-.065-6.022.466-6.026 3.833-.03 26.441-4.587 27.372-5.518 1.973-1.972-.66-4.663-9.387-9.593-10.623-6.002-10.943-6.329-10.943-11.183 0-5.507 3.064-10.906 8.356-14.724l4.35-3.14 34.25 11.083c77.665 25.129 104.74 32.272 140.32 37.01 17.385 2.316 48.72 2.62 63.53.617 25.671-3.473 40.631-10.16 63.99-21.767 16.92-8.409 18.303-8.483 24.35-1.298 2.497 2.968 2.983 4.598 2.983 10.013v6.467l-8.563 4.66c-8.624 4.693-13.534 8.347-13.534 10.072 0 .513 5.22 3.377 11.601 6.364 10.721 5.02 11.6 5.667 11.577 8.541-.058 7.448-11.949 21.848-21.159 26.552-3.504 1.79-.879-35.162-9.722-30.757-20.915 10.42-64.161 11.093-78.052 39.974-5.924 12.315-8.159 24.102-8.253 43.526-.042 8.659-.09 15.743-.106 15.744-.016.001-14.683-9.434-32.593-20.967z"/>
      <path fill="none" stroke="#000" strokeLinecap="round" strokeWidth="3.315" d="M248.03 412.5c1.688-37.576 3.021-40.527 5.866-69.227l2.3-23.202 5.705-5.856c14.154-14.531 30.434-16.852 54.17-7.723l8.69 3.342-1.593 59.935z"/>
      <path fill="#0293e1" fillRule="evenodd" stroke="#000" strokeLinecap="round" strokeWidth="3.384" d="M250.45 405.52c0-5.53 2.166-30.239 5.015-57.202l2.867-27.141 5.403-5.487c3.132-3.18 8.155-6.846 11.95-8.72 6.021-2.97 7.324-3.226 16.163-3.172 8.234.05 11.064.557 19.716 3.535l10.102 3.477.341 5.556c.188 3.055.026 16.039-.36 28.852l-.7 23.296-34.491 19.564c-18.97 10.76-34.832 19.737-35.248 19.948-.417.21-.758-.916-.758-2.505z"/>
      <path fill="none" stroke="#000" strokeWidth="3.35" d="M263.45 384.37c17.637-5.966 29.619-16.959 37.891-31.25 5.859-11.277 15.116-16.436 26.172-18.359l27.734-3.516c13.303.467 17.682 7.18 20.703 14.844l16.406 38.281c20.256 33.807 43.483 42.851 66.797 51.172 104.67 130.98 67.87 196.75 43.75 268.36-13.218 19.776 13.778 9.393-51.172 67.97-61.629-8.038-119.15-28.674-165.23-84.376-32.423-47.886-74.422-53.639-94.141-157.42-4.132-70.099 21.922-116.84 71.094-145.7z"/>
      <path fill="#dd1b02" fillRule="evenodd" stroke="#000" strokeLinecap="round" strokeWidth="3.384" d="M446.93 769.2c-10.024-1.396-35.855-6.985-46.324-10.024-47.296-13.728-87.975-41.023-115.63-77.588-4.225-5.585-14.969-17.671-23.877-26.859-27.538-28.404-34.861-37.765-44.804-57.269-11.119-21.812-20.998-55.388-22.073-75.023-1.803-32.921 7.12-68.244 23.497-93.028 12.008-18.171 35.67-38.706 52.207-45.308 7.217-2.881 18.154-10.469 23.299-16.165 2.13-2.359 6.278-7.995 9.217-12.525 9.82-15.135 14.021-17.248 40.606-20.416 14.617-1.742 15.466-1.744 19.946-.033 2.696 1.03 5.684 3.14 7.05 4.98 1.305 1.756 6.51 12.838 11.566 24.626 10.106 23.556 11.273 25.682 20.203 36.782 6.326 7.863 13.242 14.229 21.737 20.006 5.748 3.909 23.483 12.412 29.822 14.298 4.04 1.202 5.334 2.548 15.152 15.766 46.03 61.964 63.99 113.81 57.211 165.16-1.61 12.197-5.115 27.744-9.119 40.442-5.14 16.302-14.966 43.89-17.235 48.39-1.3 2.577-2.826 7.559-3.391 11.07-.73 4.535-2.112 8.01-4.763 11.983-3.59 5.38-39.192 41.616-40.584 41.306-.373-.083-2.042-.341-3.709-.573z"/>
      <path fill="#dd1b02" fillRule="evenodd" stroke="#000" strokeLinecap="round" strokeWidth="3.384" d="M451.21 325.25c-19.2-53.603-46.052 81.139-46.052 81.139-5.54.791-35.532-73.314-46.472-72.337-5.49.49-24.959 1.267-25.042 1.172-.082-.094.444-11.126 2.18-16.34 5.863-17.599 8.762-28.432 27.188-48.557 3.428-3.587 5.104-7.116 5.104-10.745 0-2.945-4.7-11.765-12.266-23.019-3.254-4.84-5.916-9.464-5.916-10.277 0-2.342 5.15-7.837 8.759-9.345 1.814-.758 4.89-1.378 6.835-1.378 3.53 0 3.543.016 5.889 7.73 2.623 8.628 4.36 10.085 9.466 7.938 2.35-.988 3.858-2.972 6.433-8.46 3.023-6.442 3.807-7.34 7.72-8.834 4.017-1.534 4.548-1.536 6.85-.028 2.58 1.69 5.057 8.2 3.861 10.146-.373.608-3.538 4.812-7.033 9.343-5.656 7.332-6.354 8.741-6.354 12.823 0 3.4.633 5.318 2.449 7.42 2.418 2.799 2.576 2.83 12.868 2.59 9.457-.22 10.586-.453 12.229-2.525 3.831-4.832 7.347-11.606 10.85-20.903 4.212-11.178 6.074-12.732 15.142-12.634 5.719.062 9.543 1.583 14.316 5.696l2.7 2.326-1.974 13.132c-1.836 12.219-1.86 13.429-.354 17.396 2.397 6.315 6.599 10.384 10.718 10.38 5.505-.006 9.396-3.297 16.705-14.13l6.88-10.198 5.803.453c6.975.544 11.808 3.14 13.48 7.242 1.164 2.85.826 3.759-5.81 15.63-3.874 6.931-7.546 14.477-8.159 16.77 2.227 19.736 21.295 17.08 24.177 29.523-14.225 6.762-49.724 16.793-73.173 10.862zM477.47 394.11c-2.092-.52-5.502-1.81-7.578-2.87l-3.774-1.925-3.955-23.088 64.568-17.644V371.2l-3.87 3.141c-9.466 7.683-21.808 15.911-26.601 17.733-6.51 2.475-13.826 3.267-18.79 2.035z"/>
      <path fill="#fc5f54" fillRule="evenodd" stroke="#000" strokeWidth="1" d="M421.3 498.89c13.749 13.06 29.971 17.875 32.857 67.143 1.801 19.172-3.24 36.063-12.857 51.429 17.269 36.866 22.251 80.755 12.857 132.86-32.652-28.963-55.411-65.347-72.857-105.71-2.47-21.473-1.549-41.251 18.571-51.429-25.511-7.245-21.421-29.29-25.714-47.143 8.553-30.037 27.346-39.594 47.143-47.143zM264.16 403.17c-61.45 32.472-57.32 78.06-64.286 121.43 44.283-46.501 71.284-55.56 92.857-52.857 39.348-26.208 49.084-43.956 62.857-62.857-19.032-12.777-2.811-59.044-91.429-5.714z"/>
      <path fill="#c97901" fillRule="evenodd" stroke="#000" strokeWidth="3.35" d="M380.23 362.46c6.803 11.738 15.516 22.63 12.143 37.143-2.609 19.961-14.358 29.892-24.643 41.429-10.948 5.357-19.366 10.714-27.5 16.071-9.122 3.156-17.9 7.684-26.071 14.643l-22.857 6.071-19.286 9.286-16.071 7.5 6.429 2.857 19.643-12.143 1.071 4.643 15-9.286 8.929-2.857-32.143 37.5c-5.136 4.762-10.231 9.524-10.714 14.286-7.318 1.844-10.581 10.606-15.357 16.786l-21.786 18.93c5.635-2.409 12.947-7.61 13.214-1.072l-2.5 7.5-2.857 11.786v5l-3.215 12.5 4.286-5 2.143-6.429c-.52-4.603 4.097-2.887 8.214-1.785l-3.571-7.857 4.643-20.714c5.203-11.416 10.766-20.495 17.857-19.643 3.067 8.943 2.105 19.972-2.5 28.929-12.376 27.494-13.258 41.852-19.643 62.5-5.065 11.036.615 12.522 3.571 16.429.425 2.891 2.327 1.35 4.643-1.429-2.875-14.83 1.637-25.967 8.214-36.071.75-3.597.11-9 10-.714l47.5 55c7.077 14.09 15.78 27.145 33.214 34.643 6.902 4.057 13.336 9.99 19.286 17.857l12.857 22.143c6.823 11.892 10.213 13.047 15 18.57-9.127-12.182-10.367-17.194 1.429-10.356l-11.071-9.286-11.071-17.857c.075-2.743-3.839-10.273 5-2.5 14.07 7.603 22.129 19.5 29.643 31.786 36.103 29.154 27.343 17.403 33.929 19.643-12.8-7.867-25.436-15.961-33.571-30.357l-27.5-29.643c-8.69-7.934-17.381-10.135-26.071-13.571-14.113-10.284-26.233-25.217-37.5-42.143l9.643 2.143 21.429 12.857-2.858-6.071c-4.961-2.767-10.764-6.654-18.57-13.214-21.372-1.308-31.189-19.42-42.5-35.357l-13.572-21.786c-6.539-62.725 14.04-84.775 37.5-102.5 20.911-15.867 43.904-38.577 58.571-33.93.407 5.202-.087 11.079 3.93 13.572-.598 4.409-.687 7.8-2.144 13.929l-6.428 5.714c-3.89 4.77-2.458 7.412-1.786 10.357 2.296-3.427 4.463-7.912 7.143-8.214.501 8.468 3.431 16.62 12.857 23.929-3.313-6.78-6.29-13.446-6.786-19.286.434-7.654.917-15.405 3.214-26.786-4.207-5.358-1.946-10.714.358-16.071 1.874-3.123 4.317-7.952 7.142-13.93 11.21-20.732 22.83-41.281 25.714-65.713-4.03 5.067-7.72 11.498-13.57 9.285-7.217-3.678-12.354-12.708-19.644-19.643zM455.94 424.6l9.286 53.214c16.006 26.223 33.804 26.246 41.07 29.286 9.734 1.836 12.38 6.84 10.358 13.929-7.515-4.376-15.83-7.15-24.286-9.643-6.072 4.241-1.608 12.002.357 18.93l8.928 40.713 5.358 36.786 4.285 22.143 5 26.43-9.285-27.144c-8.366 37.987 8.157 74.453-36.786 117.5 7.294-15.927 17.398-26.389 23.929-53.214l-20 16.786 2.857-8.929-2.5-7.857c7.577 6.3 12.778-1.664 18.57-6.071 4.271-19.413 10.317-37.84 6.43-61.786 1.97-42.968-4.737-45.439-7.858-64.643l-3.928 15.357c-.456 3.945.151 7.713 5.357 10.714l.714 13.214c-3.974-8.036-8.348-18.005-6.786.714-2.727 6.871-5.417 13.84-10 16.071 5.309-16.729 7.382-28.804 5-37.857l1.786-23.57c.82-9.173 3.218-17.753-3.214-29.644-5-12.323-10-27.84-15-43.929z"/>
      <path fill="#700902" fillRule="evenodd" stroke="#c00602" strokeWidth="1" d="M403.53 382.95c-5.023 14.326-8.634 31.1-18.105 48.025 0 0-16.745 17.635-16.745 19.655-25.638 2.238-43.947 22.798-64.65 37.376-36.962 28.978-38.187 67.486-35.355 107.08 23.811 45.36 45.754 54.061 64.65 81.822 13.326 9.796 15.925 21.977 40.406 29.294-19.257-2.537-28.725-18.777-41.921-29.8-19.916-32.618-48.085-45.403-58.589-80.307-19.853-73.479 27.638-116.41 95.459-147.48l17.678-17.173z"/>
      <path fill="#225d6a" fillRule="evenodd" stroke="#156295" strokeWidth="0.2" d="M406.56 381.44c-5.023 14.326-9.644 31.1-19.115 48.025 0 0-16.745 17.635-16.745 19.655-25.638 2.238-43.947 22.798-64.65 37.376-36.962 28.978-38.187 67.486-35.355 107.08 23.811 45.36 45.754 54.061 64.65 81.822 13.326 9.796 15.925 21.977 40.406 29.294-19.257-2.537-28.725-18.777-41.921-29.8-19.916-32.618-48.085-45.403-58.589-80.307-19.853-73.479 27.638-116.41 95.459-147.48l17.678-17.173z"/>
      <path fill="#235d6b" fillRule="evenodd" stroke="#c21d02" strokeWidth="1" d="M476.77 497.61c9.629 12.964 11.953 25.927 13.637 38.891 8.15 30.641 11.273 61.283 14.142 91.924-3.485 81.083-8.27 68.418-19.193 95.964 14.048-18.682 16.902-52.606 17.173-97.985.44-25.269.732-49.578-13.132-87.883z"/>
    </svg>